<?xml version="1.0" standalone="no"?><!DOCTYPE svg PUBLIC "-//W3C//DTD SVG 1.1//EN" "http://www.w3.org/Graphics/SVG/1.1/DTD/svg11.dtd"><svg t="1693738872494" class="icon" viewBox="0 0 1024 1024" version="1.1" xmlns="http://www.w3.org/2000/svg" p-id="7080" xmlns:xlink="http://www.w3.org/1999/xlink" width="200" height="200"><path d="M509.2 791.3c-8.7 0-17.3-2.7-24.6-8.1-10.8-7.9-265.3-196.9-265.3-397.8 0-159.9 130.1-290 290-290s290 130.1 290 290c0 200.9-254.5 389.9-265.3 397.8-7.5 5.5-16.1 8.1-24.8 8.1z m0-612.5c-113.9 0-206.6 92.7-206.6 206.6 0 117.5 132.1 250.2 206.6 311.3 74.5-61.2 206.6-194.1 206.6-311.3 0.1-113.9-92.6-206.6-206.6-206.6z" fill="#8a8a8a" p-id="7081"></path><path d="M509.2 526.5c-77.7 0-141-63.3-141-141s63.3-141 141-141 141 63.3 141 141-63.2 141-141 141z m0-198.7c-31.8 0-57.6 25.9-57.6 57.6s25.8 57.6 57.6 57.6 57.6-25.9 57.6-57.6-25.8-57.6-57.6-57.6zM511.3 929.2c-200.7 0-416.7-50.3-416.7-160.8 0-36.8 24.6-88.4 141.9-124.9 21.9-6.8 45.3 5.4 52.2 27.4 6.8 22-5.5 45.3-27.4 52.2-64.4 20-82.1 41.2-83.3 45.8 5.7 20.4 116.8 76.8 333.3 76.8 216.6 0 327.7-56.5 333.4-78-1.3-3.6-19.7-25.5-87.2-45.9-22-6.6-34.5-29.9-27.9-52 6.7-22 29.9-34.5 52-27.9 121 36.5 146.4 88.8 146.4 126.3 0 110.6-216 161-416.7 161z" fill="#8a8a8a" p-id="7082"></path></svg>