<svg width="82" height="82" viewBox="0 0 82 82" fill="none" xmlns="http://www.w3.org/2000/svg">
<path d="M4.85291 39.3343C4.59666 39.022 4.72479 38.5496 5.10116 38.4134C6.08612 38.0531 7.62362 37.5005 8.72869 37.1001C9.59354 36.7878 10.5465 36.8599 11.3633 37.3003C12.9728 38.1652 15.6875 39.6386 17.0328 40.4074C17.5693 40.7117 18.2099 40.7677 18.7945 40.5515C21.389 39.6066 28.7082 36.94 30.4379 36.2994C30.7662 36.1793 30.8943 35.7869 30.7021 35.4906L14.8867 11.1228C14.6785 10.8105 14.8226 10.3861 15.175 10.25C16.5283 9.74546 19.5392 8.64038 21.1168 8.0398C21.5492 7.87163 21.8375 7.95171 22.1818 8.23198C30.9344 15.1828 39.6949 22.1255 48.4394 29.0843C48.8879 29.4447 49.2402 29.4847 49.7687 29.2925C56.7275 26.738 63.6943 24.2076 70.6611 21.6771C73.9043 20.5 77.1074 22.4138 77.6199 25.8011C77.9722 28.1234 76.5388 30.4216 74.1846 31.2785C68.6992 33.2804 63.2139 35.2744 57.7285 37.2763L19.4191 51.2339C16.6644 52.2429 14.5584 51.4902 12.7967 49.1279C11.4674 47.3261 6.49451 41.3123 4.85291 39.3343Z" fill="#8097FD"/>
<path d="M19.7555 62.8774C18.5223 62.8774 17.3691 62.1086 16.9367 60.8834C16.3842 59.3219 17.193 57.6162 18.7545 57.0557L60.8516 42.0891C62.4131 41.5365 64.1187 42.3453 64.6793 43.9068C65.2318 45.4684 64.423 47.174 62.8615 47.7346L20.7644 62.7012C20.4281 62.8213 20.0918 62.8774 19.7555 62.8774ZM19.7555 74.0402C18.5383 74.0402 17.3851 73.2875 16.9447 72.0783C16.3762 70.5248 17.1689 68.8031 18.7225 68.2346L40.2394 60.3469C41.793 59.7783 43.5146 60.5711 44.0832 62.1246C44.6517 63.6781 43.859 65.3998 42.3055 65.9684L20.7885 73.8561C20.4521 73.9762 20.0998 74.0402 19.7555 74.0402Z" fill="#232426"/>
</svg>
